# xmcd CD database file
#
# Track frame offsets:
#	150
#	16797
#	35697
#	50255
#	60755
#	75455
#	92823
#	106871
#	122471
#	141971
#	154337
#	170554
#	185156
#	199704
#	215899
#	234043
#	254383
#	264883
#
# Disc length: 3727 seconds
#
# Revision: 0
# Processed by: cddbd v1.5.2PL0 Copyright (c) Steve Scherf et al.
# Submitted via: CDex 1.79
#
DISCID=ea0e8d12
DTITLE=Various Artist - Country gaan groot en vat dit huis toe Vol 3 CD1
DYEAR=1900
DGENRE=Country
TTITLE0=Last ten year
TTITLE1=Wake up dancing
TTITLE2=The green green grass of home
TTITLE3=Blue eyes crying  in the rain
TTITLE4=Seven spanish angels
TTITLE5=I love this bar
TTITLE6=Eleven roses
TTITLE7=Ant's on a log
TTITLE8=Toe's
TTITLE9=Sacred memories
TTITLE10=Almost there
TTITLE11=Heart
TTITLE12=She don't know Jack
TTITLE13=African skies and fireflies
TTITLE14=stand
TTITLE15=Sunday morning coming down
TTITLE16=I Love a rainy night
TTITLE17=Vleisbraai
EXTD=
EXTT0=
EXTT1=
EXTT2=
EXTT3=
EXTT4=
EXTT5=
EXTT6=
EXTT7=
EXTT8=
EXTT9=
EXTT10=
EXTT11=
EXTT12=
EXTT13=
EXTT14=
EXTT15=
EXTT16=
EXTT17=
PLAYORDER=
